<?xml version="1.0" standalone="no"?>
<!DOCTYPE svg PUBLIC "-//W3C//DTD SVG 20010904//EN"
 "http://www.w3.org/TR/2001/REC-SVG-20010904/DTD/svg10.dtd">
<svg version="1.0" xmlns="http://www.w3.org/2000/svg"
 width="256.000000pt" height="256.000000pt" viewBox="0 0 256.000000 256.000000"
 preserveAspectRatio="xMidYMid meet">
<metadata>
Created by potrace 1.11, written by Peter Selinger 2001-2013
</metadata>
<g transform="translate(0.000000,256.000000) scale(0.100000,-0.100000)"
fill="#000000" stroke="none">
<path d="M1260 2462 c-8 -4 -26 -14 -40 -23 -14 -9 -149 -90 -300 -179 -392
-233 -573 -340 -755 -449 l-160 -96 -1 -720 c0 -396 1 -725 4 -732 2 -7 25
-25 50 -41 152 -94 209 -127 222 -127 8 -1 44 18 80 40 36 22 94 58 130 79
l65 39 0 414 c0 227 2 413 6 413 4 0 337 -191 654 -376 22 -13 50 -24 62 -24
13 0 262 139 555 308 293 169 574 332 625 361 50 29 93 60 95 69 8 35 2 292
-7 301 -10 9 -1264 752 -1268 750 -1 0 -9 -3 -17 -7z m250 -782 c96 -57 181
-108 188 -115 10 -9 4 -15 -25 -32 -21 -11 -118 -68 -216 -127 l-179 -106
-146 86 c-81 48 -177 105 -214 126 -38 22 -68 43 -68 46 0 4 96 64 213 134
l212 126 30 -18 c17 -9 109 -64 205 -120z"/>
</g>
</svg>
